<?xml version="1.0" standalone="no"?>
<!DOCTYPE svg PUBLIC "-//W3C//DTD SVG 20010904//EN"
 "http://www.w3.org/TR/2001/REC-SVG-20010904/DTD/svg10.dtd">
<svg version="1.0" xmlns="http://www.w3.org/2000/svg"
 width="1280.000000pt" height="958.000000pt" viewBox="0 0 1280.000000 958.000000"
 preserveAspectRatio="xMidYMid meet">
<metadata>
Created by potrace 1.15, written by Peter Selinger 2001-2017
</metadata>
<g transform="translate(0.000000,958.000000) scale(0.100000,-0.100000)"
fill="#3b82f4" stroke="none">
<path d="M6960 9570 c-353 -24 -711 -84 -1055 -177 -370 -99 -831 -276 -1154
-444 -73 -38 -138 -66 -144 -62 -6 4 -7 1 -2 -7 6 -10 4 -12 -9 -7 -11 5 -15
3 -10 -5 5 -8 2 -9 -10 -5 -9 4 -15 3 -11 -2 3 -5 -25 -26 -62 -47 -38 -21
-126 -73 -198 -117 -71 -43 -123 -73 -115 -65 19 19 185 124 273 172 37 21 67
40 67 43 0 7 -147 -75 -260 -147 -58 -37 -105 -72 -105 -79 0 -8 -11 -20 -25
-29 l-25 -14 25 21 c14 11 21 21 15 21 -5 0 -23 -12 -40 -26 -16 -14 -24 -23
-17 -19 17 9 15 0 -5 -16 -14 -12 -16 -12 -9 0 17 27 -13 5 -130 -94 -152
-129 -423 -383 -593 -555 -228 -230 -438 -486 -586 -714 -38 -59 -116 -165
-173 -237 -93 -117 -111 -147 -196 -327 -257 -545 -407 -1021 -505 -1602 -61
-364 -80 -558 -82 -819 -1 -262 7 -239 -153 -461 l-139 -193 12 -216 c6 -119
14 -265 16 -326 l5 -110 -152 -127 c-567 -471 -1061 -952 -1215 -1183 -74
-112 -165 -352 -185 -491 -53 -364 261 -650 974 -888 312 -104 610 -161 1043
-198 227 -19 944 -16 1225 5 693 54 1277 140 1832 273 465 111 779 224 983
354 55 35 138 87 185 115 74 45 2454 1181 2600 1241 30 12 357 109 725 214
369 105 713 204 765 220 52 16 181 54 285 85 504 150 952 305 1035 359 19 12
76 39 125 60 133 56 345 166 470 243 167 102 226 168 360 398 61 104 120 212
132 240 39 88 56 189 50 284 -7 111 -31 181 -79 236 -41 46 -168 145 -187 145
-17 0 -26 31 -47 154 l-19 109 -138 104 c-76 57 -140 110 -142 116 -2 7 -18
80 -35 162 -84 393 -266 942 -452 1370 -539 1234 -1327 2135 -2278 2604 -463
228 -1034 384 -1640 446 -182 19 -641 27 -820 15z"/>
</g>
</svg>
