<svg width="640" height="509" xmlns="http://www.w3.org/2000/svg">
 <g>
  <title>Layer 1</title>
  <text x="490.677" y="358.95803" fill=" rgb(51, 51, 51)" font-family=" Arial, sans-serif" font-size=" 64.8px" id="svg_2"/>
  <g transform="matrix(1.21699 0 0 0.836001 124.794 482.684)" id="svg_3">
   <polygon points="-4.1085094809532166,-58.05198287963867 45.89148670434952,-29.184467315673828 45.89148670434952,28.550559997558594 -4.1085094809532166,57.418067932128906 -54.10850948095322,28.550559997558594 -54.10850948095322,-29.184467315673828 " fill="none" stroke="grey" id="svg_4"/>
  </g>
  <g transform="matrix(1.21699 0 0 0.836001 246.493 482.684)" id="svg_5">
   <polygon points="-4.1085094809532166,-58.05198287963867 45.89148670434952,-29.184467315673828 45.89148670434952,28.550559997558594 -4.1085094809532166,57.418067932128906 -54.10850948095322,28.550559997558594 -54.10850948095322,-29.184467315673828 " fill="none" stroke="grey" id="svg_6"/>
  </g>
  <g transform="matrix(1.21699 0 0 0.836001 368.192 482.684)" id="svg_7">
   <polygon points="-4.1085094809532166,-58.05198287963867 45.89148670434952,-29.184467315673828 45.89148670434952,28.550559997558594 -4.1085094809532166,57.418067932128906 -54.10850948095322,28.550559997558594 -54.10850948095322,-29.184467315673828 " fill="none" stroke="grey" id="svg_8"/>
  </g>
  <g transform="matrix(1.21699 0 0 0.836001 489.89 482.684)" id="svg_9">
   <polygon points="-4.1085094809532166,-58.05198287963867 45.89148670434952,-29.184467315673828 45.89148670434952,28.550559997558594 -4.1085094809532166,57.418067932128906 -54.10850948095322,28.550559997558594 -54.10850948095322,-29.184467315673828 " fill="none" stroke="grey" id="svg_10"/>
  </g>
  <g transform="matrix(1.21699 0 0 0.836001 611.589 482.684)" id="svg_11">
   <polygon points="-4.1085094809532166,-58.05198287963867 45.89148670434952,-29.184467315673828 45.89148670434952,28.550559997558594 -4.1085094809532166,57.418067932128906 -54.10850948095322,28.550559997558594 -54.10850948095322,-29.184467315673828 " fill="none" stroke="grey" id="svg_12"/>
  </g>
  <g transform="matrix(1.21699 0 0 0.836001 733.287 482.684)" id="svg_13">
   <polygon points="-4.1085094809532166,-58.05198287963867 45.89148670434952,-29.184467315673828 45.89148670434952,28.550559997558594 -4.1085094809532166,57.418067932128906 -54.10850948095322,28.550559997558594 -54.10850948095322,-29.184467315673828 " fill="none" stroke="grey" id="svg_14"/>
  </g>
  <g transform="matrix(1.21699 0 0 0.836001 854.986 482.684)" id="svg_15">
   <polygon points="-4.1085094809532166,-58.05198287963867 45.89148670434952,-29.184467315673828 45.89148670434952,28.550559997558594 -4.1085094809532166,57.418067932128906 -54.10850948095322,28.550559997558594 -54.10850948095322,-29.184467315673828 " fill="none" stroke="grey" id="svg_16"/>
  </g>
  <g transform="matrix(1.21699 0 0 0.836001 63.9451 410.285)" id="svg_17">
   <polygon points="-4.1085094809532166,-58.05198287963867 45.89148670434952,-29.184467315673828 45.89148670434952,28.550559997558594 -4.1085094809532166,57.418067932128906 -54.10850948095322,28.550559997558594 -54.10850948095322,-29.184467315673828 " fill="none" stroke="grey" id="svg_18"/>
  </g>
  <g transform="matrix(1.21699 0 0 0.836001 185.644 410.285)" id="svg_19">
   <polygon points="-4.1085094809532166,-58.05198287963867 45.89148670434952,-29.184467315673828 45.89148670434952,28.550559997558594 -4.1085094809532166,57.418067932128906 -54.10850948095322,28.550559997558594 -54.10850948095322,-29.184467315673828 " fill="none" stroke="grey" id="svg_20"/>
  </g>
  <g transform="matrix(1.21699 0 0 0.836001 307.342 410.285)" id="svg_21">
   <polygon points="-4.1085094809532166,-58.05198287963867 45.89148670434952,-29.184467315673828 45.89148670434952,28.550559997558594 -4.1085094809532166,57.418067932128906 -54.10850948095322,28.550559997558594 -54.10850948095322,-29.184467315673828 " fill="none" stroke="grey" id="svg_22"/>
  </g>
  <g transform="matrix(1.21699 0 0 0.836001 429.041 410.285)" id="svg_23">
   <polygon points="-4.1085094809532166,-58.05198287963867 45.89148670434952,-29.184467315673828 45.89148670434952,28.550559997558594 -4.1085094809532166,57.418067932128906 -54.10850948095322,28.550559997558594 -54.10850948095322,-29.184467315673828 " fill="none" stroke="grey" id="svg_24"/>
  </g>
  <g transform="matrix(1.21699 0 0 0.836001 550.74 410.285)" id="svg_25">
   <polygon points="-4.1085094809532166,-58.05198287963867 45.89148670434952,-29.184467315673828 45.89148670434952,28.550559997558594 -4.1085094809532166,57.418067932128906 -54.10850948095322,28.550559997558594 -54.10850948095322,-29.184467315673828 " fill="none" stroke="grey" id="svg_26"/>
  </g>
  <g transform="matrix(1.21699 0 0 0.836001 672.438 410.285)" id="svg_27">
   <polygon points="-4.1085094809532166,-58.05198287963867 45.89148670434952,-29.184467315673828 45.89148670434952,28.550559997558594 -4.1085094809532166,57.418067932128906 -54.10850948095322,28.550559997558594 -54.10850948095322,-29.184467315673828 " fill="none" stroke="grey" id="svg_28"/>
  </g>
  <g transform="matrix(1.21699 0 0 0.836001 794.137 410.285)" id="svg_29">
   <polygon points="-4.1085094809532166,-58.05198287963867 45.89148670434952,-29.184467315673828 45.89148670434952,28.550559997558594 -4.1085094809532166,57.418067932128906 -54.10850948095322,28.550559997558594 -54.10850948095322,-29.184467315673828 " fill="none" stroke="grey" id="svg_30"/>
  </g>
  <g transform="matrix(1.21699 0 0 0.836001 915.835 410.285)" id="svg_31">
   <polygon points="-4.1085094809532166,-58.05198287963867 45.89148670434952,-29.184467315673828 45.89148670434952,28.550559997558594 -4.1085094809532166,57.418067932128906 -54.10850948095322,28.550559997558594 -54.10850948095322,-29.184467315673828 " fill="none" stroke="grey" id="svg_32"/>
  </g>
  <g transform="matrix(1.21699 0 0 0.836001 124.794 337.885)" id="svg_33">
   <polygon points="-4.1085094809532166,-58.05198287963867 45.89148670434952,-29.184467315673828 45.89148670434952,28.550559997558594 -4.1085094809532166,57.418067932128906 -54.10850948095322,28.550559997558594 -54.10850948095322,-29.184467315673828 " fill="none" stroke="grey" id="svg_34"/>
  </g>
  <g transform="matrix(1.21699 0 0 0.836001 246.493 337.885)" id="svg_35">
   <polygon points="-4.1085094809532166,-58.05198287963867 45.89148670434952,-29.184467315673828 45.89148670434952,28.550559997558594 -4.1085094809532166,57.418067932128906 -54.10850948095322,28.550559997558594 -54.10850948095322,-29.184467315673828 " fill="none" stroke="grey" id="svg_36"/>
  </g>
  <g transform="matrix(1.21699 0 0 0.836001 368.192 337.885)" id="svg_37">
   <polygon points="-4.1085094809532166,-58.05198287963867 45.89148670434952,-29.184467315673828 45.89148670434952,28.550559997558594 -4.1085094809532166,57.418067932128906 -54.10850948095322,28.550559997558594 -54.10850948095322,-29.184467315673828 " fill="none" stroke="grey" id="svg_38"/>
  </g>
  <g transform="matrix(1.21699 0 0 0.836001 489.89 337.885)" id="svg_39">
   <polygon points="-4.1085094809532166,-58.05198287963867 45.89148670434952,-29.184467315673828 45.89148670434952,28.550559997558594 -4.1085094809532166,57.418067932128906 -54.10850948095322,28.550559997558594 -54.10850948095322,-29.184467315673828 " fill="none" stroke="grey" id="svg_40"/>
  </g>
  <g transform="matrix(1.21699 0 0 0.836001 611.589 337.885)" id="svg_41">
   <polygon points="-4.1085094809532166,-58.05198287963867 45.89148670434952,-29.184467315673828 45.89148670434952,28.550559997558594 -4.1085094809532166,57.418067932128906 -54.10850948095322,28.550559997558594 -54.10850948095322,-29.184467315673828 " fill="none" stroke="grey" id="svg_42"/>
  </g>
  <g transform="matrix(1.21699 0 0 0.836001 733.287 337.885)" id="svg_43">
   <polygon points="-4.1085094809532166,-58.05198287963867 45.89148670434952,-29.184467315673828 45.89148670434952,28.550559997558594 -4.1085094809532166,57.418067932128906 -54.10850948095322,28.550559997558594 -54.10850948095322,-29.184467315673828 " fill="none" stroke="grey" id="svg_44"/>
  </g>
  <g transform="matrix(1.21699 0 0 0.836001 854.986 337.885)" id="svg_45">
   <polygon points="-4.1085094809532166,-58.05198287963867 45.89148670434952,-29.184467315673828 45.89148670434952,28.550559997558594 -4.1085094809532166,57.418067932128906 -54.10850948095322,28.550559997558594 -54.10850948095322,-29.184467315673828 " fill="none" stroke="grey" id="svg_46"/>
  </g>
  <g transform="matrix(1.21699 0 0 0.836001 63.9451 265.485)" id="svg_47">
   <polygon points="-4.1085094809532166,-58.05198287963867 45.89148670434952,-29.184467315673828 45.89148670434952,28.550559997558594 -4.1085094809532166,57.418067932128906 -54.10850948095322,28.550559997558594 -54.10850948095322,-29.184467315673828 " fill="none" stroke="grey" id="svg_48"/>
  </g>
  <g transform="matrix(1.21699 0 0 0.836001 185.644 265.485)" id="svg_49">
   <polygon points="-4.1085094809532166,-58.05198287963867 45.89148670434952,-29.184467315673828 45.89148670434952,28.550559997558594 -4.1085094809532166,57.418067932128906 -54.10850948095322,28.550559997558594 -54.10850948095322,-29.184467315673828 " fill="none" stroke="grey" id="svg_50"/>
  </g>
  <g transform="matrix(1.21699 0 0 0.836001 307.342 265.485)" id="svg_51">
   <polygon points="-4.1085094809532166,-58.05198287963867 45.89148670434952,-29.184467315673828 45.89148670434952,28.550559997558594 -4.1085094809532166,57.418067932128906 -54.10850948095322,28.550559997558594 -54.10850948095322,-29.184467315673828 " fill="none" stroke="grey" id="svg_52"/>
  </g>
  <g transform="matrix(1.21699 0 0 0.836001 429.041 265.485)" id="svg_53">
   <polygon points="-4.1085094809532166,-58.05198287963867 45.89148670434952,-29.184467315673828 45.89148670434952,28.550559997558594 -4.1085094809532166,57.418067932128906 -54.10850948095322,28.550559997558594 -54.10850948095322,-29.184467315673828 " fill="none" stroke="grey" id="svg_54"/>
  </g>
  <g transform="matrix(1.21699 0 0 0.836001 550.74 265.485)" id="svg_55">
   <polygon points="-4.1085094809532166,-58.05198287963867 45.89148670434952,-29.184467315673828 45.89148670434952,28.550559997558594 -4.1085094809532166,57.418067932128906 -54.10850948095322,28.550559997558594 -54.10850948095322,-29.184467315673828 " fill="none" stroke="grey" id="svg_56"/>
  </g>
  <g transform="matrix(1.21699 0 0 0.836001 672.438 265.485)" id="svg_57">
   <polygon points="-4.1085094809532166,-58.05198287963867 45.89148670434952,-29.184467315673828 45.89148670434952,28.550559997558594 -4.1085094809532166,57.418067932128906 -54.10850948095322,28.550559997558594 -54.10850948095322,-29.184467315673828 " fill="none" stroke="grey" id="svg_58"/>
  </g>
  <g transform="matrix(1.21699 0 0 0.836001 794.137 265.485)" id="svg_59">
   <polygon points="-4.1085094809532166,-58.05198287963867 45.89148670434952,-29.184467315673828 45.89148670434952,28.550559997558594 -4.1085094809532166,57.418067932128906 -54.10850948095322,28.550559997558594 -54.10850948095322,-29.184467315673828 " fill="none" stroke="grey" id="svg_60"/>
  </g>
  <g transform="matrix(1.21699 0 0 0.836001 915.835 265.485)" id="svg_61">
   <polygon points="-4.1085094809532166,-58.05198287963867 45.89148670434952,-29.184467315673828 45.89148670434952,28.550559997558594 -4.1085094809532166,57.418067932128906 -54.10850948095322,28.550559997558594 -54.10850948095322,-29.184467315673828 " fill="none" stroke="grey" id="svg_62"/>
  </g>
  <g transform="matrix(1.21699 0 0 0.836001 124.794 193.085)" id="svg_63">
   <polygon points="-4.1085094809532166,-58.05198287963867 45.89148670434952,-29.184467315673828 45.89148670434952,28.550559997558594 -4.1085094809532166,57.418067932128906 -54.10850948095322,28.550559997558594 -54.10850948095322,-29.184467315673828 " fill="none" stroke="grey" id="svg_64"/>
  </g>
  <g transform="matrix(1.21699 0 0 0.836001 246.493 193.085)" id="svg_65">
   <polygon points="-4.1085094809532166,-58.05198287963867 45.89148670434952,-29.184467315673828 45.89148670434952,28.550559997558594 -4.1085094809532166,57.418067932128906 -54.10850948095322,28.550559997558594 -54.10850948095322,-29.184467315673828 " fill="none" stroke="grey" id="svg_66"/>
  </g>
  <g transform="matrix(1.21699 0 0 0.836001 368.192 193.085)" id="svg_67">
   <polygon points="-4.1085094809532166,-58.05198287963867 45.89148670434952,-29.184467315673828 45.89148670434952,28.550559997558594 -4.1085094809532166,57.418067932128906 -54.10850948095322,28.550559997558594 -54.10850948095322,-29.184467315673828 " fill="none" stroke="grey" id="svg_68"/>
  </g>
  <g transform="matrix(1.21699 0 0 0.836001 489.89 193.085)" id="svg_69">
   <polygon points="-4.1085094809532166,-58.05198287963867 45.89148670434952,-29.184467315673828 45.89148670434952,28.550559997558594 -4.1085094809532166,57.418067932128906 -54.10850948095322,28.550559997558594 -54.10850948095322,-29.184467315673828 " fill="none" stroke="grey" id="svg_70"/>
  </g>
  <g transform="matrix(1.21699 0 0 0.836001 611.589 193.085)" id="svg_71">
   <polygon points="-4.1085094809532166,-58.05198287963867 45.89148670434952,-29.184467315673828 45.89148670434952,28.550559997558594 -4.1085094809532166,57.418067932128906 -54.10850948095322,28.550559997558594 -54.10850948095322,-29.184467315673828 " fill="none" stroke="grey" id="svg_72"/>
  </g>
  <g transform="matrix(1.21699 0 0 0.836001 733.287 193.085)" id="svg_73">
   <polygon points="-4.1085094809532166,-58.05198287963867 45.89148670434952,-29.184467315673828 45.89148670434952,28.550559997558594 -4.1085094809532166,57.418067932128906 -54.10850948095322,28.550559997558594 -54.10850948095322,-29.184467315673828 " fill="none" stroke="grey" id="svg_74"/>
  </g>
  <g transform="matrix(1.21699 0 0 0.836001 854.986 193.085)" id="svg_75">
   <polygon points="-4.1085094809532166,-58.05198287963867 45.89148670434952,-29.184467315673828 45.89148670434952,28.550559997558594 -4.1085094809532166,57.418067932128906 -54.10850948095322,28.550559997558594 -54.10850948095322,-29.184467315673828 " fill="none" stroke="grey" id="svg_76"/>
  </g>
  <g transform="matrix(1.21699 0 0 0.836001 63.9451 120.685)" id="svg_77">
   <polygon points="-4.1085094809532166,-58.05198287963867 45.89148670434952,-29.184467315673828 45.89148670434952,28.550559997558594 -4.1085094809532166,57.418067932128906 -54.10850948095322,28.550559997558594 -54.10850948095322,-29.184467315673828 " fill="none" stroke="grey" id="svg_78"/>
  </g>
  <g transform="matrix(1.21699 0 0 0.836001 185.644 120.685)" id="svg_79">
   <polygon points="-4.1085094809532166,-58.05198287963867 45.89148670434952,-29.184467315673828 45.89148670434952,28.550559997558594 -4.1085094809532166,57.418067932128906 -54.10850948095322,28.550559997558594 -54.10850948095322,-29.184467315673828 " fill="none" stroke="grey" id="svg_80"/>
  </g>
  <g transform="matrix(1.21699 0 0 0.836001 307.342 120.685)" id="svg_81">
   <polygon points="-4.1085094809532166,-58.05198287963867 45.89148670434952,-29.184467315673828 45.89148670434952,28.550559997558594 -4.1085094809532166,57.418067932128906 -54.10850948095322,28.550559997558594 -54.10850948095322,-29.184467315673828 " fill="none" stroke="grey" id="svg_82"/>
  </g>
  <g transform="matrix(1.21699 0 0 0.836001 429.041 120.685)" id="svg_83">
   <polygon points="-4.1085094809532166,-58.05198287963867 45.89148670434952,-29.184467315673828 45.89148670434952,28.550559997558594 -4.1085094809532166,57.418067932128906 -54.10850948095322,28.550559997558594 -54.10850948095322,-29.184467315673828 " fill="none" stroke="grey" id="svg_84"/>
  </g>
  <g transform="matrix(1.21699 0 0 0.836001 550.74 120.685)" id="svg_85">
   <polygon points="-4.1085094809532166,-58.05198287963867 45.89148670434952,-29.184467315673828 45.89148670434952,28.550559997558594 -4.1085094809532166,57.418067932128906 -54.10850948095322,28.550559997558594 -54.10850948095322,-29.184467315673828 " fill="none" stroke="grey" id="svg_86"/>
  </g>
  <g transform="matrix(1.21699 0 0 0.836001 672.438 120.685)" id="svg_87">
   <polygon points="-4.1085094809532166,-58.05198287963867 45.89148670434952,-29.184467315673828 45.89148670434952,28.550559997558594 -4.1085094809532166,57.418067932128906 -54.10850948095322,28.550559997558594 -54.10850948095322,-29.184467315673828 " fill="none" stroke="grey" id="svg_88"/>
  </g>
  <g transform="matrix(1.21699 0 0 0.836001 794.137 120.685)" id="svg_89">
   <polygon points="-4.1085094809532166,-58.05198287963867 45.89148670434952,-29.184467315673828 45.89148670434952,28.550559997558594 -4.1085094809532166,57.418067932128906 -54.10850948095322,28.550559997558594 -54.10850948095322,-29.184467315673828 " fill="none" stroke="grey" id="svg_90"/>
  </g>
  <g transform="matrix(1.21699 0 0 0.836001 915.835 120.685)" id="svg_91">
   <polygon points="-4.1085094809532166,-58.05198287963867 45.89148670434952,-29.184467315673828 45.89148670434952,28.550559997558594 -4.1085094809532166,57.418067932128906 -54.10850948095322,28.550559997558594 -54.10850948095322,-29.184467315673828 " fill="none" stroke="grey" id="svg_92"/>
  </g>
  <g transform="matrix(1.21699 0 0 0.836001 124.794 48.2856)" id="svg_93">
   <polygon points="-4.1085094809532166,-58.05198287963867 45.89148670434952,-29.184467315673828 45.89148670434952,28.550559997558594 -4.1085094809532166,57.418067932128906 -54.10850948095322,28.550559997558594 -54.10850948095322,-29.184467315673828 " fill="none" stroke="grey" id="svg_94"/>
  </g>
  <g transform="matrix(1.21699 0 0 0.836001 246.493 48.2856)" id="svg_95">
   <polygon points="-4.1085094809532166,-58.05198287963867 45.89148670434952,-29.184467315673828 45.89148670434952,28.550559997558594 -4.1085094809532166,57.418067932128906 -54.10850948095322,28.550559997558594 -54.10850948095322,-29.184467315673828 " fill="none" stroke="grey" id="svg_96"/>
  </g>
  <g transform="matrix(1.21699 0 0 0.836001 368.192 48.2856)" id="svg_97">
   <polygon points="-4.1085094809532166,-58.05198287963867 45.89148670434952,-29.184467315673828 45.89148670434952,28.550559997558594 -4.1085094809532166,57.418067932128906 -54.10850948095322,28.550559997558594 -54.10850948095322,-29.184467315673828 " fill="none" stroke="grey" id="svg_98"/>
  </g>
  <g transform="matrix(1.21699 0 0 0.836001 489.89 48.2856)" id="svg_99">
   <polygon points="-4.1085094809532166,-58.05198287963867 45.89148670434952,-29.184467315673828 45.89148670434952,28.550559997558594 -4.1085094809532166,57.418067932128906 -54.10850948095322,28.550559997558594 -54.10850948095322,-29.184467315673828 " fill="none" stroke="grey" id="svg_100"/>
  </g>
  <g transform="matrix(1.21699 0 0 0.836001 611.589 48.2856)" id="svg_101">
   <polygon points="-4.1085094809532166,-58.05198287963867 45.89148670434952,-29.184467315673828 45.89148670434952,28.550559997558594 -4.1085094809532166,57.418067932128906 -54.10850948095322,28.550559997558594 -54.10850948095322,-29.184467315673828 " fill="none" stroke="grey" id="svg_102"/>
  </g>
  <g transform="matrix(1.21699 0 0 0.836001 733.287 48.2856)" id="svg_103">
   <polygon points="-4.1085094809532166,-58.05198287963867 45.89148670434952,-29.184467315673828 45.89148670434952,28.550559997558594 -4.1085094809532166,57.418067932128906 -54.10850948095322,28.550559997558594 -54.10850948095322,-29.184467315673828 " fill="none" stroke="grey" id="svg_104"/>
  </g>
  <g transform="matrix(1.21699 0 0 0.836001 854.986 48.2856)" id="svg_105">
   <polygon points="-4.1085094809532166,-58.05198287963867 45.89148670434952,-29.184467315673828 45.89148670434952,28.550559997558594 -4.1085094809532166,57.418067932128906 -54.10850948095322,28.550559997558594 -54.10850948095322,-29.184467315673828 " fill="none" stroke="grey" id="svg_106"/>
  </g>
  <g transform="matrix(0.130868 0 0 -0.107836 91.9806 736.616)" fill="#000000" id="svg_107">
   <path d="m-301.81247,4803.9442c-47,-25 -86,-71 -99,-118c-6,-21 -10,-154 -10,-314l0,-278l-114,0c-106,0 -117,-2 -142,-24c-38,-32 -39,-86 -1,-124l27,-27l2380,0l2380,0l27,28c26,26 28,33 31,132c6,169 -22,251 -99,294c-20,12 -52,21 -70,21c-19,0 -112,-22 -206,-49c-216,-62 -467,-125 -786,-196l-248,-55l-1505,0l-1504,0l0,273c0,199 -19.563,276 -10.563,285c16,16 -18.437,170 -50.437,152z" id="svg_108"/>
   <path d="m-607.81247,3591.9442c5,-229 22,-326 81,-476c140,-355 438,-637 796,-756c206,-68 165,-66 1470,-66c1282,0 1260,-1 1445,57c394,124 709,433 839,823c51,154 66,255 66,456l0,174l-2351,0l-2351,0l5,-212z" id="svg_109"/>
   <path d="m-269.81247,2500.9442c-31,-93 -54,-123 -113,-153c-67,-33 -85,-50 -110,-98c-16,-31 -18,-44 -9,-62l11,-24l214,0c244,0 242,-1 230,75c-6,45 -6,47 40,89l46,43l-78,46c-43,25 -108,68 -145,96l-66,50l-20,-62z" id="svg_110"/>
   <path d="m3654.18753,2506.9442c-33,-25 -95,-66 -137,-91c-43,-24 -78,-48 -78,-51c0,-4 13,-15 30,-24c41,-25 53,-52 47,-102c-11,-76 -11,-76 232,-73c183,3 215,5 224,19c23,37 -32,123 -103,159c-55,28 -106,91 -126,154c-10,31 -20,56 -23,56c-3,-1 -33,-21 -66,-47z" id="svg_111"/>
  </g>
  <text x="771.297" y="896.95303" fill=" rgb(51, 51, 51)" font-family=" Arial, sans-serif" font-size=" 58.9px" id="svg_112"/>
  <text x="937.152" y="653.88603" fill=" rgb(51, 51, 51)" font-family=" Arial, sans-serif" font-size=" 55.1px" id="svg_113"/>
  <path fill="#000000" d="m459.765,84.90103c8.529,9.078 6.647,19.537 0.374,25.176c-4.138,3.727 -26.817,17.061 -31.316,19.718c-0.387,0.217 -0.8,0.397 -1.228,0.517c-0.373,0.109 -9.117,2.537 -18.26,2.537c-2.696,0 -5.205,-0.229 -7.448,-0.649c-0.214,-0.024 -0.414,-0.048 -0.573,-0.048c-0.081,0 -0.148,0.012 -0.174,0.012c-0.148,0.156 -0.574,0.865 -0.574,2.381l0,31.524c0,0.817 -0.093,6.011 -2.643,10.363l26.843,15.114c0.067,0.023 0.133,0.072 0.187,0.108c0.28,0.156 2.736,1.719 5.138,4.063c3.858,3.763 5.5,7.515 4.886,11.182c-0.814,4.797 -5.299,8.368 -13.348,10.652c-21.103,5.928 -161.445,38.69 -167.412,40.084c-0.306,0.085 -0.64,0.109 -0.961,0.145c-0.08,0 -0.761,0.036 -1.828,0.036c-6.528,0 -14.923,-1.13 -17.86,-6.456c-1.936,-3.535 -0.975,-7.611 2.843,-12.12c10.292,-12.179 74.776,-85.074 78.207,-88.957c2.082,-2.778 7.288,-7.215 14.469,-7.215c2.522,0 5.072,0.554 7.582,1.612c9.69,4.051 24.693,14.644 27.203,16.447c0.868,0.409 2.924,1.202 4.565,1.202l0.013,0c0.668,0 1.174,0 1.602,-1.106l0,-36.946c-0.014,-0.926 0.134,-5.784 4.285,-9.643c3.11,-2.886 7.475,-4.376 12.974,-4.436c0.36,-0.048 1.349,-0.24 2.269,-0.698c1.108,-0.577 1.615,-1.274 1.723,-2.392c0.399,-3.944 4.431,-8.308 22.838,-16.808c9.33,-4.317 18.433,-7.839 19.822,-8.368c1.174,-0.529 6.153,-2.61 12,-2.61c5.606,0 10.371,1.924 13.802,5.579zm-6.661,18.841c2.122,-1.912 4.658,-7.094 -0.935,-13.058c-1.548,-1.647 -3.51,-2.392 -6.206,-2.392c-3.911,0 -7.569,1.671 -7.608,1.671c-0.121,0.072 -0.227,0.108 -0.348,0.156c-0.093,0.024 -8.783,3.355 -17.846,7.479c-15.123,6.865 -18.38,10.003 -19.008,10.796c-0.347,2.561 -1.442,4.557 -2.897,6.096c0.414,0.157 0.828,0.301 1.255,0.469c4.806,1.912 7.996,4.941 9.41,8.921c0.134,0 0.268,0 0.414,0c6.328,0 12.708,-1.467 14.684,-1.96c10.144,-5.963 26.509,-15.871 29.085,-18.178zm-27.964,101.798c0.24,-1.407 -2.937,-4.653 -5.753,-6.456l-31.729,-17.878c-0.401,-0.217 -0.761,-0.481 -1.067,-0.806l-68.944,28.374c-0.266,0.108 -0.547,0.169 -0.828,0.169c-0.654,0 -1.281,-0.289 -1.655,-0.818c-0.546,-0.733 -0.4,-1.731 0.321,-2.309l44.676,-36.345c-0.854,-0.361 -1.428,-0.65 -1.588,-0.733c-0.201,-0.12 -0.401,-0.229 -0.574,-0.373c-0.16,-0.109 -16.245,-11.662 -25.535,-15.582c-1.188,-0.481 -2.323,-0.745 -3.377,-0.745c-3.604,0 -6.074,3.054 -6.274,3.33c-0.093,0.144 -0.16,0.205 -0.28,0.349c-0.668,0.757 -67.741,76.574 -78.207,88.946c-1.294,1.515 -1.628,2.404 -1.722,2.753c0.801,0.541 3.685,1.443 8.823,1.443c0.321,0 0.601,-0.025 0.815,-0.025c9.611,-2.235 146.175,-34.145 166.411,-39.844c4.898,-1.37 6.38,-2.849 6.487,-3.45zm-21.238,-82.105c0.187,0.036 0.375,0.072 0.562,0.097c-1.255,-2.261 -3.404,-4.016 -6.461,-5.243c-1.175,-0.492 -2.336,-0.818 -3.404,-1.07c-2.323,1.226 -4.778,1.78 -6.553,1.924c-0.135,0.012 -0.267,0.024 -0.414,0.024c-2.857,0 -4.926,0.565 -6.154,1.707c-1.415,1.322 -1.468,3.21 -1.468,3.21c0,0.048 0,0.096 0,0.157l0,37.643c0,0.373 -0.054,0.77 -0.174,1.155c-0.868,2.921 -2.536,5.158 -4.832,6.564l11.439,4.978c0.428,-0.493 0.989,-0.89 1.616,-1.166c1.548,-0.698 2.562,-4.881 2.562,-7.346l0,-31.524c0,-2.947 0.814,-5.555 2.35,-7.503c1.949,-2.489 4.911,-3.859 8.343,-3.859c0.841,0 1.708,0.096 2.588,0.252zm-76.176,77.248l56.315,-23.156l-14.389,-6.277c-0.401,0.025 -0.801,0.036 -1.215,0.036c-1.401,0 -2.764,-0.168 -4.005,-0.456l-36.706,29.853zm124.443,-109.999c5.593,5.964 3.057,11.146 0.935,13.058c-2.576,2.307 -18.941,12.215 -29.085,18.178c-1.976,0.493 -8.356,1.96 -14.684,1.96c-0.146,0 -0.28,0 -0.414,0c-1.414,-3.98 -4.605,-7.009 -9.41,-8.921c-0.427,-0.168 -0.841,-0.312 -1.255,-0.469c1.455,-1.539 2.55,-3.535 2.897,-6.096c0.628,-0.793 3.885,-3.931 19.008,-10.796c9.063,-4.124 17.753,-7.454 17.846,-7.479c0.12,-0.048 0.227,-0.084 0.348,-0.156c0.039,0 3.697,-1.671 7.608,-1.671c2.696,0 4.658,0.745 6.206,2.392zm-32.782,108.4c2.816,1.803 5.993,5.049 5.753,6.456c-0.107,0.601 -1.401,3.511 -6.487,3.45c-23.826,-0.284 -160.796,30.949 -166.411,39.844c-0.214,0 -0.494,0.025 -0.814,0.025c-5.139,0 -8.023,-0.902 -8.824,-1.443c0.094,-0.349 0.428,-1.238 1.722,-2.753c10.466,-12.372 77.539,-88.189 78.207,-88.946c0.12,-0.144 0.187,-0.205 0.28,-0.349c0.2,-0.276 2.67,-3.33 6.274,-3.33c1.054,0 2.189,0.264 3.377,0.745c9.29,3.92 25.375,15.473 25.535,15.582c0.173,0.144 0.373,0.253 0.574,0.373c0.16,0.084 0.734,0.372 1.588,0.733l-44.676,36.345c-0.721,0.578 -0.867,1.576 -0.321,2.309c0.374,0.529 1.002,0.818 1.655,0.818c0.281,0 0.562,-0.061 0.828,-0.169l68.944,-28.374c0.306,0.325 0.666,0.589 1.067,0.806l31.729,17.878zm-14.923,-75.552c-0.187,-0.025 -0.375,-0.061 -0.562,-0.097c-0.88,-0.156 -1.747,-0.252 -2.588,-0.252c-3.432,0 -6.394,1.37 -8.343,3.859c-1.536,1.948 -2.35,4.556 -2.35,7.502l0,31.525c0,2.465 -1.014,6.648 -2.562,7.346c-0.627,0.276 -1.188,0.673 -1.616,1.166l-11.439,-4.978c2.296,-1.406 3.964,-3.643 4.832,-6.564c0.12,-0.385 0.174,-0.782 0.174,-1.155l0,-37.643c0,-0.061 0,-0.109 0,-0.157c0,0 0.053,-1.888 1.468,-3.21c1.228,-1.142 3.297,-1.707 6.154,-1.707c0.147,0 0.279,-0.012 0.414,-0.024c1.775,-0.144 4.23,-0.698 6.553,-1.924c1.068,0.252 2.229,0.578 3.404,1.07c3.057,1.227 5.206,2.982 6.461,5.243zm-20.423,53.995l-56.315,23.156l36.706,-29.853c1.241,0.288 2.604,0.457 4.005,0.457c0.414,0 0.814,-0.012 1.215,-0.037l14.389,6.277z" id="svg_114"/>
  <g transform="matrix(0.1 0 0 -0.1 352.207 520.661)" fill="#000000" id="svg_115"/>
  <g transform="matrix(0.071121 0 0 -0.1 179.081 801.75)" fill="#000000" id="svg_116">
   <path d="m-1263.10194,7963.95272c-279.355,-30.546 -517.629,-135.516 -641.901,-283.249l-35.947,-42.21l-8.475,-1573.107c-100.977,-1657.318 278.933,-804.672 283.091,-750.877c6.827,88.33 11.745,2286.142 38.448,2316.688c64.704,71.645 268.242,147.809 431.542,166.138c90.38,9.997 135.57,9.997 225.95,0c102.705,-11.663 173.57,-32.768 251.626,-74.423c80.109,-43.32 154.056,-114.965 154.056,-151.066l0,-21.66l-100.65,-27.214c-168.435,-45.543 -267.031,-98.86 -346.114,-186.612c-47.244,-52.206 -87.298,-129.405 -89.352,-172.17c-1.028,-24.992 14.378,-42.766 56.487,-67.758l20.541,-12.774l636.767,0l635.74,0l28.757,15.551c38.001,20.549 47.244,53.874 30.812,107.746c-23.623,75.533 -93.462,156.619 -180.76,209.383c-47.244,28.324 -188.976,83.307 -245.464,94.971c-100.65,20.549 -108.866,26.102 -128.38,88.306c-6.162,19.439 -21.568,49.431 -32.866,66.648c-77.028,111.633 -294.761,230.488 -502.224,274.363c-136.596,29.436 -337.897,38.877 -481.684,23.326z" id="svg_117"/>
  </g>
 </g>

</svg>