<?xml version="1.0" encoding="utf-8"?>
<svg viewBox="0 0 980 888" xmlns="http://www.w3.org/2000/svg">
  <path d="M 190.551 665.819 C 194.53 665.819 197.591 664.875 199.733 662.986 C 201.876 661.096 202.946 658.398 202.946 654.889 L 202.946 639.064 C 202.946 637.347 202.668 635.814 202.112 634.465 C 201.555 633.115 200.741 631.968 199.671 631.024 C 198.599 630.079 197.299 629.361 195.768 628.87 C 194.237 628.379 192.499 628.134 190.551 628.134 L 168.682 628.134 L 168.682 665.819 Z M 160.126 673.364 L 160.126 620.59 L 190.551 620.59 C 193.751 620.59 196.637 621.025 199.212 621.896 C 201.785 622.767 203.983 624.007 205.805 625.613 C 207.628 627.22 209.033 629.165 210.021 631.446 C 211.009 633.728 211.503 636.267 211.503 639.064 L 211.503 654.889 C 211.503 657.686 211.009 660.226 210.021 662.507 C 209.033 664.789 207.628 666.734 205.805 668.34 C 203.983 669.948 201.785 671.187 199.212 672.057 C 196.637 672.928 193.751 673.364 190.551 673.364 Z M 233.731 620.59 L 233.731 643.371 L 262.277 620.59 L 274.339 620.59 L 241.953 646.462 L 275.633 673.364 L 263.572 673.364 L 233.731 649.626 L 233.731 673.364 L 225.174 673.364 L 225.174 620.59 Z M 291.921 620.59 L 291.921 665.819 L 322.68 665.819 L 322.68 673.364 L 283.364 673.364 L 283.364 620.59 Z M 358.57 628.134 C 358.57 627.104 358.792 626.129 359.237 625.208 C 359.683 624.288 360.294 623.491 361.074 622.816 C 361.853 622.142 362.764 621.602 363.807 621.197 C 364.851 620.792 365.957 620.59 367.125 620.59 L 399.596 620.59 C 400.765 620.59 401.87 620.792 402.914 621.197 C 403.957 621.602 404.869 622.142 405.647 622.816 C 406.426 623.491 407.039 624.288 407.484 625.208 C 407.929 626.129 408.152 627.104 408.152 628.134 L 408.152 634.943 L 399.596 634.943 L 399.596 628.134 L 367.125 628.134 L 367.125 665.819 L 399.596 665.819 L 399.596 653.013 L 383.361 653.013 L 383.361 645.468 L 408.152 645.468 L 408.152 665.819 C 408.152 666.85 407.929 667.826 407.484 668.745 C 407.039 669.665 406.426 670.469 405.647 671.156 C 404.869 671.843 403.957 672.383 402.914 672.775 C 401.87 673.168 400.765 673.364 399.596 673.364 L 367.125 673.364 C 365.957 673.364 364.851 673.168 363.807 672.775 C 362.764 672.383 361.853 671.843 361.074 671.156 C 360.294 670.469 359.683 669.665 359.237 668.745 C 358.792 667.826 358.57 666.85 358.57 665.819 Z M 470.785 639.433 C 470.785 646.793 467.224 650.989 460.101 652.019 L 471.37 673.364 L 461.896 673.364 L 450.794 652.277 L 432.055 652.277 L 432.055 673.364 L 423.498 673.364 L 423.498 620.59 L 456.261 620.59 C 465.944 620.59 470.785 624.871 470.785 633.434 Z M 432.055 644.732 L 455.802 644.732 C 458.084 644.732 459.725 644.29 460.727 643.407 C 461.729 642.524 462.229 641.077 462.229 639.064 L 462.229 633.802 C 462.229 631.79 461.729 630.343 460.727 629.459 C 459.725 628.576 458.084 628.134 455.802 628.134 L 432.055 628.134 Z M 485.034 620.59 L 493.59 620.59 L 493.59 665.819 L 527.772 665.819 L 527.772 620.59 L 536.327 620.59 L 536.327 665.819 C 536.327 666.85 536.105 667.826 535.66 668.745 C 535.215 669.665 534.603 670.469 533.824 671.156 C 533.044 671.843 532.133 672.383 531.09 672.775 C 530.047 673.168 528.94 673.364 527.772 673.364 L 493.59 673.364 C 492.421 673.364 491.316 673.168 490.272 672.775 C 489.229 672.383 488.317 671.843 487.539 671.156 C 486.759 670.469 486.148 669.665 485.702 668.745 C 485.257 667.826 485.034 666.85 485.034 665.819 Z M 551.684 673.364 L 551.684 620.59 L 584.447 620.59 C 594.129 620.59 598.971 624.871 598.971 633.434 L 598.971 640.942 C 598.971 649.504 594.129 653.786 584.447 653.786 L 560.24 653.786 L 560.24 673.364 Z M 560.24 646.241 L 583.988 646.241 C 586.269 646.241 587.911 645.8 588.912 644.916 C 589.915 644.033 590.415 642.585 590.415 640.574 L 590.415 633.802 C 590.415 631.79 589.915 630.343 588.912 629.459 C 587.911 628.576 586.269 628.134 583.988 628.134 L 560.24 628.134 Z M 610.902 673.364 L 610.902 620.59 L 643.664 620.59 C 653.347 620.59 658.188 624.871 658.188 633.434 L 658.188 640.942 C 658.188 649.504 653.347 653.786 643.664 653.786 L 619.458 653.786 L 619.458 673.364 Z M 619.458 646.241 L 643.205 646.241 C 645.487 646.241 647.128 645.8 648.13 644.916 C 649.132 644.033 649.633 642.585 649.633 640.574 L 649.633 633.802 C 649.633 631.79 649.132 630.343 648.13 629.459 C 647.128 628.576 645.487 628.134 643.205 628.134 L 619.458 628.134 Z M 747.007 665.819 C 747.007 666.85 746.784 667.826 746.339 668.745 C 745.894 669.665 745.282 670.469 744.502 671.156 C 743.724 671.843 742.813 672.383 741.769 672.775 C 740.725 673.168 739.619 673.364 738.451 673.364 L 704.269 673.364 C 703.101 673.364 701.995 673.168 700.951 672.775 C 699.908 672.383 698.997 671.843 698.218 671.156 C 697.438 670.469 696.827 669.665 696.382 668.745 C 695.936 667.826 695.714 666.85 695.714 665.819 L 695.714 628.134 C 695.714 627.104 695.936 626.129 696.382 625.208 C 696.827 624.288 697.438 623.491 698.218 622.816 C 698.997 622.142 699.908 621.602 700.951 621.197 C 701.995 620.792 703.101 620.59 704.269 620.59 L 738.451 620.59 C 739.619 620.59 740.725 620.792 741.769 621.197 C 742.813 621.602 743.724 622.142 744.502 622.816 C 745.282 623.491 745.894 624.288 746.339 625.208 C 746.784 626.129 747.007 627.104 747.007 628.134 Z M 704.269 628.134 L 704.269 665.819 L 738.451 665.819 L 738.451 628.134 Z M 762.363 620.59 L 770.919 620.59 L 770.919 665.819 L 805.101 665.819 L 805.101 620.59 L 813.656 620.59 L 813.656 665.819 C 813.656 666.85 813.434 667.826 812.988 668.745 C 812.544 669.665 811.932 670.469 811.152 671.156 C 810.373 671.843 809.463 672.383 808.419 672.775 C 807.376 673.168 806.269 673.364 805.101 673.364 L 770.919 673.364 C 769.751 673.364 768.645 673.168 767.601 672.775 C 766.558 672.383 765.646 671.843 764.868 671.156 C 764.088 670.469 763.477 669.665 763.031 668.745 C 762.586 667.826 762.363 666.85 762.363 665.819 Z M 792.121 605.832 L 801.178 605.832 L 801.178 613.819 L 792.121 613.819 Z M 774.759 605.832 L 783.815 605.832 L 783.815 613.819 L 774.759 613.819 Z" style="fill: rgb(51, 51, 51); white-space: pre;"/>
  <text style="white-space: pre; fill: rgb(51, 51, 51); font-family: Arial, sans-serif; font-size: 64.8px;" x="495.677" y="359.223"> </text>
  <g transform="matrix(1.216987, 0, 0, 0.836001, 124.794363, 482.684411)" style="">
    <polygon points="&#10;&#9;&#9;0,-57.73502692&#10;&#9;&#9;50,-28.86751346 &#10;&#9;&#9;50,28.86751346&#10;&#9;&#9;0, 57.73502692&#10;&#9;&#9;-50,28.86751346&#10;&#9;&#9;-50,-28.86751346 " fill="none" stroke="grey"/>
  </g>
  <g transform="matrix(1.216987, 0, 0, 0.836001, 246.492993, 482.684411)" style="">
    <polygon points="&#10;&#9;&#9;0,-57.73502692&#10;&#9;&#9;50,-28.86751346 &#10;&#9;&#9;50,28.86751346&#10;&#9;&#9;0, 57.73502692&#10;&#9;&#9;-50,28.86751346&#10;&#9;&#9;-50,-28.86751346 " fill="none" stroke="grey"/>
  </g>
  <g transform="matrix(1.216987, 0, 0, 0.836001, 368.191615, 482.684411)" style="">
    <polygon points="&#10;&#9;&#9;0,-57.73502692&#10;&#9;&#9;50,-28.86751346 &#10;&#9;&#9;50,28.86751346&#10;&#9;&#9;0, 57.73502692&#10;&#9;&#9;-50,28.86751346&#10;&#9;&#9;-50,-28.86751346 " fill="none" stroke="grey"/>
  </g>
  <g transform="matrix(1.216987, 0, 0, 0.836001, 489.890191, 482.684411)" style="">
    <polygon points="&#10;&#9;&#9;0,-57.73502692&#10;&#9;&#9;50,-28.86751346 &#10;&#9;&#9;50,28.86751346&#10;&#9;&#9;0, 57.73502692&#10;&#9;&#9;-50,28.86751346&#10;&#9;&#9;-50,-28.86751346 " fill="none" stroke="grey"/>
  </g>
  <g transform="matrix(1.216987, 0, 0, 0.836001, 611.588798, 482.684411)" style="">
    <polygon points="&#10;&#9;&#9;0,-57.73502692&#10;&#9;&#9;50,-28.86751346 &#10;&#9;&#9;50,28.86751346&#10;&#9;&#9;0, 57.73502692&#10;&#9;&#9;-50,28.86751346&#10;&#9;&#9;-50,-28.86751346 " fill="none" stroke="grey"/>
  </g>
  <g transform="matrix(1.216987, 0, 0, 0.836001, 733.287465, 482.684411)" style="">
    <polygon points="&#10;&#9;&#9;0,-57.73502692&#10;&#9;&#9;50,-28.86751346 &#10;&#9;&#9;50,28.86751346&#10;&#9;&#9;0, 57.73502692&#10;&#9;&#9;-50,28.86751346&#10;&#9;&#9;-50,-28.86751346 " fill="none" stroke="grey"/>
  </g>
  <g transform="matrix(1.216987, 0, 0, 0.836001, 854.986072, 482.684411)" style="">
    <polygon points="&#10;&#9;&#9;0,-57.73502692&#10;&#9;&#9;50,-28.86751346 &#10;&#9;&#9;50,28.86751346&#10;&#9;&#9;0, 57.73502692&#10;&#9;&#9;-50,28.86751346&#10;&#9;&#9;-50,-28.86751346 " fill="none" stroke="grey"/>
  </g>
  <g transform="matrix(1.216987, 0, 0, 0.836001, 63.945056, 410.284601)" style="">
    <polygon points="&#10;&#9;&#9;0,-57.73502692&#10;&#9;&#9;50,-28.86751346 &#10;&#9;&#9;50,28.86751346&#10;&#9;&#9;0, 57.73502692&#10;&#9;&#9;-50,28.86751346&#10;&#9;&#9;-50,-28.86751346 " fill="none" stroke="grey"/>
  </g>
  <g transform="matrix(1.216987, 0, 0, 0.836001, 185.643674, 410.284601)" style="">
    <polygon points="&#10;&#9;&#9;0,-57.73502692&#10;&#9;&#9;50,-28.86751346 &#10;&#9;&#9;50,28.86751346&#10;&#9;&#9;0, 57.73502692&#10;&#9;&#9;-50,28.86751346&#10;&#9;&#9;-50,-28.86751346 " fill="none" stroke="grey"/>
  </g>
  <g transform="matrix(1.216987, 0, 0, 0.836001, 307.342281, 410.284601)" style="">
    <polygon points="&#10;&#9;&#9;0,-57.73502692&#10;&#9;&#9;50,-28.86751346 &#10;&#9;&#9;50,28.86751346&#10;&#9;&#9;0, 57.73502692&#10;&#9;&#9;-50,28.86751346&#10;&#9;&#9;-50,-28.86751346 " fill="none" stroke="grey"/>
  </g>
  <g transform="matrix(1.216987, 0, 0, 0.836001, 429.040888, 410.284601)" style="">
    <polygon points="&#10;&#9;&#9;0,-57.73502692&#10;&#9;&#9;50,-28.86751346 &#10;&#9;&#9;50,28.86751346&#10;&#9;&#9;0, 57.73502692&#10;&#9;&#9;-50,28.86751346&#10;&#9;&#9;-50,-28.86751346 " fill="none" stroke="grey"/>
  </g>
  <g transform="matrix(1.216987, 0, 0, 0.836001, 550.739494, 410.284601)" style="">
    <polygon points="&#10;&#9;&#9;0,-57.73502692&#10;&#9;&#9;50,-28.86751346 &#10;&#9;&#9;50,28.86751346&#10;&#9;&#9;0, 57.73502692&#10;&#9;&#9;-50,28.86751346&#10;&#9;&#9;-50,-28.86751346 " fill="none" stroke="grey"/>
  </g>
  <g transform="matrix(1.216987, 0, 0, 0.836001, 672.438101, 410.284601)" style="">
    <polygon points="&#10;&#9;&#9;0,-57.73502692&#10;&#9;&#9;50,-28.86751346 &#10;&#9;&#9;50,28.86751346&#10;&#9;&#9;0, 57.73502692&#10;&#9;&#9;-50,28.86751346&#10;&#9;&#9;-50,-28.86751346 " fill="none" stroke="grey"/>
  </g>
  <g transform="matrix(1.216987, 0, 0, 0.836001, 794.136769, 410.284601)" style="">
    <polygon points="&#10;&#9;&#9;0,-57.73502692&#10;&#9;&#9;50,-28.86751346 &#10;&#9;&#9;50,28.86751346&#10;&#9;&#9;0, 57.73502692&#10;&#9;&#9;-50,28.86751346&#10;&#9;&#9;-50,-28.86751346 " fill="none" stroke="grey"/>
  </g>
  <g transform="matrix(1.216987, 0, 0, 0.836001, 915.835375, 410.284601)" style="">
    <polygon points="&#10;&#9;&#9;0,-57.73502692&#10;&#9;&#9;50,-28.86751346 &#10;&#9;&#9;50,28.86751346&#10;&#9;&#9;0, 57.73502692&#10;&#9;&#9;-50,28.86751346&#10;&#9;&#9;-50,-28.86751346 " fill="none" stroke="grey"/>
  </g>
  <g transform="matrix(1.216987, 0, 0, 0.836001, 124.794363, 337.884822)" style="">
    <polygon points="&#10;&#9;&#9;0,-57.73502692&#10;&#9;&#9;50,-28.86751346 &#10;&#9;&#9;50,28.86751346&#10;&#9;&#9;0, 57.73502692&#10;&#9;&#9;-50,28.86751346&#10;&#9;&#9;-50,-28.86751346 " fill="none" stroke="grey"/>
  </g>
  <g transform="matrix(1.216987, 0, 0, 0.836001, 246.492993, 337.884822)" style="">
    <polygon points="&#10;&#9;&#9;0,-57.73502692&#10;&#9;&#9;50,-28.86751346 &#10;&#9;&#9;50,28.86751346&#10;&#9;&#9;0, 57.73502692&#10;&#9;&#9;-50,28.86751346&#10;&#9;&#9;-50,-28.86751346 " fill="none" stroke="grey"/>
  </g>
  <g transform="matrix(1.216987, 0, 0, 0.836001, 368.191615, 337.884822)" style="">
    <polygon points="&#10;&#9;&#9;0,-57.73502692&#10;&#9;&#9;50,-28.86751346 &#10;&#9;&#9;50,28.86751346&#10;&#9;&#9;0, 57.73502692&#10;&#9;&#9;-50,28.86751346&#10;&#9;&#9;-50,-28.86751346 " fill="none" stroke="grey"/>
  </g>
  <g transform="matrix(1.216987, 0, 0, 0.836001, 489.890191, 337.884822)" style="">
    <polygon points="&#10;&#9;&#9;0,-57.73502692&#10;&#9;&#9;50,-28.86751346 &#10;&#9;&#9;50,28.86751346&#10;&#9;&#9;0, 57.73502692&#10;&#9;&#9;-50,28.86751346&#10;&#9;&#9;-50,-28.86751346 " fill="none" stroke="grey"/>
  </g>
  <g transform="matrix(1.216987, 0, 0, 0.836001, 611.588798, 337.884822)" style="">
    <polygon points="&#10;&#9;&#9;0,-57.73502692&#10;&#9;&#9;50,-28.86751346 &#10;&#9;&#9;50,28.86751346&#10;&#9;&#9;0, 57.73502692&#10;&#9;&#9;-50,28.86751346&#10;&#9;&#9;-50,-28.86751346 " fill="none" stroke="grey"/>
  </g>
  <g transform="matrix(1.216987, 0, 0, 0.836001, 733.287465, 337.884822)" style="">
    <polygon points="&#10;&#9;&#9;0,-57.73502692&#10;&#9;&#9;50,-28.86751346 &#10;&#9;&#9;50,28.86751346&#10;&#9;&#9;0, 57.73502692&#10;&#9;&#9;-50,28.86751346&#10;&#9;&#9;-50,-28.86751346 " fill="none" stroke="grey"/>
  </g>
  <g transform="matrix(1.216987, 0, 0, 0.836001, 854.986072, 337.884822)" style="">
    <polygon points="&#10;&#9;&#9;0,-57.73502692&#10;&#9;&#9;50,-28.86751346 &#10;&#9;&#9;50,28.86751346&#10;&#9;&#9;0, 57.73502692&#10;&#9;&#9;-50,28.86751346&#10;&#9;&#9;-50,-28.86751346 " fill="none" stroke="grey"/>
  </g>
  <g transform="matrix(1.216987, 0, 0, 0.836001, 63.945056, 265.485012)" style="">
    <polygon points="&#10;&#9;&#9;0,-57.73502692&#10;&#9;&#9;50,-28.86751346 &#10;&#9;&#9;50,28.86751346&#10;&#9;&#9;0, 57.73502692&#10;&#9;&#9;-50,28.86751346&#10;&#9;&#9;-50,-28.86751346 " fill="none" stroke="grey"/>
  </g>
  <g transform="matrix(1.216987, 0, 0, 0.836001, 185.643674, 265.485012)" style="">
    <polygon points="&#10;&#9;&#9;0,-57.73502692&#10;&#9;&#9;50,-28.86751346 &#10;&#9;&#9;50,28.86751346&#10;&#9;&#9;0, 57.73502692&#10;&#9;&#9;-50,28.86751346&#10;&#9;&#9;-50,-28.86751346 " fill="none" stroke="grey"/>
  </g>
  <g transform="matrix(1.216987, 0, 0, 0.836001, 307.342281, 265.485012)" style="">
    <polygon points="&#10;&#9;&#9;0,-57.73502692&#10;&#9;&#9;50,-28.86751346 &#10;&#9;&#9;50,28.86751346&#10;&#9;&#9;0, 57.73502692&#10;&#9;&#9;-50,28.86751346&#10;&#9;&#9;-50,-28.86751346 " fill="none" stroke="grey"/>
  </g>
  <g transform="matrix(1.216987, 0, 0, 0.836001, 429.040888, 265.485012)" style="">
    <polygon points="&#10;&#9;&#9;0,-57.73502692&#10;&#9;&#9;50,-28.86751346 &#10;&#9;&#9;50,28.86751346&#10;&#9;&#9;0, 57.73502692&#10;&#9;&#9;-50,28.86751346&#10;&#9;&#9;-50,-28.86751346 " fill="none" stroke="grey"/>
  </g>
  <g transform="matrix(1.216987, 0, 0, 0.836001, 550.739494, 265.485012)" style="">
    <polygon points="&#10;&#9;&#9;0,-57.73502692&#10;&#9;&#9;50,-28.86751346 &#10;&#9;&#9;50,28.86751346&#10;&#9;&#9;0, 57.73502692&#10;&#9;&#9;-50,28.86751346&#10;&#9;&#9;-50,-28.86751346 " fill="none" stroke="grey"/>
  </g>
  <g transform="matrix(1.216987, 0, 0, 0.836001, 672.438101, 265.485012)" style="">
    <polygon points="&#10;&#9;&#9;0,-57.73502692&#10;&#9;&#9;50,-28.86751346 &#10;&#9;&#9;50,28.86751346&#10;&#9;&#9;0, 57.73502692&#10;&#9;&#9;-50,28.86751346&#10;&#9;&#9;-50,-28.86751346 " fill="none" stroke="grey"/>
  </g>
  <g transform="matrix(1.216987, 0, 0, 0.836001, 794.136769, 265.485012)" style="">
    <polygon points="&#10;&#9;&#9;0,-57.73502692&#10;&#9;&#9;50,-28.86751346 &#10;&#9;&#9;50,28.86751346&#10;&#9;&#9;0, 57.73502692&#10;&#9;&#9;-50,28.86751346&#10;&#9;&#9;-50,-28.86751346 " fill="none" stroke="grey"/>
  </g>
  <g transform="matrix(1.216987, 0, 0, 0.836001, 915.835375, 265.485012)" style="">
    <polygon points="&#10;&#9;&#9;0,-57.73502692&#10;&#9;&#9;50,-28.86751346 &#10;&#9;&#9;50,28.86751346&#10;&#9;&#9;0, 57.73502692&#10;&#9;&#9;-50,28.86751346&#10;&#9;&#9;-50,-28.86751346 " fill="none" stroke="grey"/>
  </g>
  <g transform="matrix(1.216987, 0, 0, 0.836001, 124.794363, 193.085202)" style="">
    <polygon points="&#10;&#9;&#9;0,-57.73502692&#10;&#9;&#9;50,-28.86751346 &#10;&#9;&#9;50,28.86751346&#10;&#9;&#9;0, 57.73502692&#10;&#9;&#9;-50,28.86751346&#10;&#9;&#9;-50,-28.86751346 " fill="none" stroke="grey"/>
  </g>
  <g transform="matrix(1.216987, 0, 0, 0.836001, 246.492993, 193.085202)" style="">
    <polygon points="&#10;&#9;&#9;0,-57.73502692&#10;&#9;&#9;50,-28.86751346 &#10;&#9;&#9;50,28.86751346&#10;&#9;&#9;0, 57.73502692&#10;&#9;&#9;-50,28.86751346&#10;&#9;&#9;-50,-28.86751346 " fill="none" stroke="grey"/>
  </g>
  <g transform="matrix(1.216987, 0, 0, 0.836001, 368.191615, 193.085202)" style="">
    <polygon points="&#10;&#9;&#9;0,-57.73502692&#10;&#9;&#9;50,-28.86751346 &#10;&#9;&#9;50,28.86751346&#10;&#9;&#9;0, 57.73502692&#10;&#9;&#9;-50,28.86751346&#10;&#9;&#9;-50,-28.86751346 " fill="none" stroke="grey"/>
  </g>
  <g transform="matrix(1.216987, 0, 0, 0.836001, 489.890191, 193.085202)" style="">
    <polygon points="&#10;&#9;&#9;0,-57.73502692&#10;&#9;&#9;50,-28.86751346 &#10;&#9;&#9;50,28.86751346&#10;&#9;&#9;0, 57.73502692&#10;&#9;&#9;-50,28.86751346&#10;&#9;&#9;-50,-28.86751346 " fill="none" stroke="grey"/>
  </g>
  <g transform="matrix(1.216987, 0, 0, 0.836001, 611.588798, 193.085202)" style="">
    <polygon points="&#10;&#9;&#9;0,-57.73502692&#10;&#9;&#9;50,-28.86751346 &#10;&#9;&#9;50,28.86751346&#10;&#9;&#9;0, 57.73502692&#10;&#9;&#9;-50,28.86751346&#10;&#9;&#9;-50,-28.86751346 " fill="none" stroke="grey"/>
  </g>
  <g transform="matrix(1.216987, 0, 0, 0.836001, 733.287465, 193.085202)" style="">
    <polygon points="&#10;&#9;&#9;0,-57.73502692&#10;&#9;&#9;50,-28.86751346 &#10;&#9;&#9;50,28.86751346&#10;&#9;&#9;0, 57.73502692&#10;&#9;&#9;-50,28.86751346&#10;&#9;&#9;-50,-28.86751346 " fill="none" stroke="grey"/>
  </g>
  <g transform="matrix(1.216987, 0, 0, 0.836001, 854.986072, 193.085202)" style="">
    <polygon points="&#10;&#9;&#9;0,-57.73502692&#10;&#9;&#9;50,-28.86751346 &#10;&#9;&#9;50,28.86751346&#10;&#9;&#9;0, 57.73502692&#10;&#9;&#9;-50,28.86751346&#10;&#9;&#9;-50,-28.86751346 " fill="none" stroke="grey"/>
  </g>
  <g transform="matrix(1.216987, 0, 0, 0.836001, 63.945056, 120.685393)" style="">
    <polygon points="&#10;&#9;&#9;0,-57.73502692&#10;&#9;&#9;50,-28.86751346 &#10;&#9;&#9;50,28.86751346&#10;&#9;&#9;0, 57.73502692&#10;&#9;&#9;-50,28.86751346&#10;&#9;&#9;-50,-28.86751346 " fill="none" stroke="grey"/>
  </g>
  <g transform="matrix(1.216987, 0, 0, 0.836001, 185.643674, 120.685393)" style="">
    <polygon points="&#10;&#9;&#9;0,-57.73502692&#10;&#9;&#9;50,-28.86751346 &#10;&#9;&#9;50,28.86751346&#10;&#9;&#9;0, 57.73502692&#10;&#9;&#9;-50,28.86751346&#10;&#9;&#9;-50,-28.86751346 " fill="none" stroke="grey"/>
  </g>
  <g transform="matrix(1.216987, 0, 0, 0.836001, 307.342281, 120.685393)" style="">
    <polygon points="&#10;&#9;&#9;0,-57.73502692&#10;&#9;&#9;50,-28.86751346 &#10;&#9;&#9;50,28.86751346&#10;&#9;&#9;0, 57.73502692&#10;&#9;&#9;-50,28.86751346&#10;&#9;&#9;-50,-28.86751346 " fill="none" stroke="grey"/>
  </g>
  <g transform="matrix(1.216987, 0, 0, 0.836001, 429.040888, 120.685393)" style="">
    <polygon points="&#10;&#9;&#9;0,-57.73502692&#10;&#9;&#9;50,-28.86751346 &#10;&#9;&#9;50,28.86751346&#10;&#9;&#9;0, 57.73502692&#10;&#9;&#9;-50,28.86751346&#10;&#9;&#9;-50,-28.86751346 " fill="none" stroke="grey"/>
  </g>
  <g transform="matrix(1.216987, 0, 0, 0.836001, 550.739494, 120.685393)" style="">
    <polygon points="&#10;&#9;&#9;0,-57.73502692&#10;&#9;&#9;50,-28.86751346 &#10;&#9;&#9;50,28.86751346&#10;&#9;&#9;0, 57.73502692&#10;&#9;&#9;-50,28.86751346&#10;&#9;&#9;-50,-28.86751346 " fill="none" stroke="grey"/>
  </g>
  <g transform="matrix(1.216987, 0, 0, 0.836001, 672.438101, 120.685393)" style="">
    <polygon points="&#10;&#9;&#9;0,-57.73502692&#10;&#9;&#9;50,-28.86751346 &#10;&#9;&#9;50,28.86751346&#10;&#9;&#9;0, 57.73502692&#10;&#9;&#9;-50,28.86751346&#10;&#9;&#9;-50,-28.86751346 " fill="none" stroke="grey"/>
  </g>
  <g transform="matrix(1.216987, 0, 0, 0.836001, 794.136769, 120.685393)" style="">
    <polygon points="&#10;&#9;&#9;0,-57.73502692&#10;&#9;&#9;50,-28.86751346 &#10;&#9;&#9;50,28.86751346&#10;&#9;&#9;0, 57.73502692&#10;&#9;&#9;-50,28.86751346&#10;&#9;&#9;-50,-28.86751346 " fill="none" stroke="grey"/>
  </g>
  <g transform="matrix(1.216987, 0, 0, 0.836001, 915.835375, 120.685393)" style="">
    <polygon points="&#10;&#9;&#9;0,-57.73502692&#10;&#9;&#9;50,-28.86751346 &#10;&#9;&#9;50,28.86751346&#10;&#9;&#9;0, 57.73502692&#10;&#9;&#9;-50,28.86751346&#10;&#9;&#9;-50,-28.86751346 " fill="none" stroke="grey"/>
  </g>
  <g transform="matrix(1.216987, 0, 0, 0.836001, 124.794363, 48.285602)" style="">
    <polygon points="&#10;&#9;&#9;0,-57.73502692&#10;&#9;&#9;50,-28.86751346 &#10;&#9;&#9;50,28.86751346&#10;&#9;&#9;0, 57.73502692&#10;&#9;&#9;-50,28.86751346&#10;&#9;&#9;-50,-28.86751346 " fill="none" stroke="grey"/>
  </g>
  <g transform="matrix(1.216987, 0, 0, 0.836001, 246.492993, 48.285602)" style="">
    <polygon points="&#10;&#9;&#9;0,-57.73502692&#10;&#9;&#9;50,-28.86751346 &#10;&#9;&#9;50,28.86751346&#10;&#9;&#9;0, 57.73502692&#10;&#9;&#9;-50,28.86751346&#10;&#9;&#9;-50,-28.86751346 " fill="none" stroke="grey"/>
  </g>
  <g transform="matrix(1.216987, 0, 0, 0.836001, 368.191615, 48.285602)" style="">
    <polygon points="&#10;&#9;&#9;0,-57.73502692&#10;&#9;&#9;50,-28.86751346 &#10;&#9;&#9;50,28.86751346&#10;&#9;&#9;0, 57.73502692&#10;&#9;&#9;-50,28.86751346&#10;&#9;&#9;-50,-28.86751346 " fill="none" stroke="grey"/>
  </g>
  <g transform="matrix(1.216987, 0, 0, 0.836001, 489.890191, 48.285602)" style="">
    <polygon points="&#10;&#9;&#9;0,-57.73502692&#10;&#9;&#9;50,-28.86751346 &#10;&#9;&#9;50,28.86751346&#10;&#9;&#9;0, 57.73502692&#10;&#9;&#9;-50,28.86751346&#10;&#9;&#9;-50,-28.86751346 " fill="none" stroke="grey"/>
  </g>
  <g transform="matrix(1.216987, 0, 0, 0.836001, 611.588798, 48.285602)" style="">
    <polygon points="&#10;&#9;&#9;0,-57.73502692&#10;&#9;&#9;50,-28.86751346 &#10;&#9;&#9;50,28.86751346&#10;&#9;&#9;0, 57.73502692&#10;&#9;&#9;-50,28.86751346&#10;&#9;&#9;-50,-28.86751346 " fill="none" stroke="grey"/>
  </g>
  <g transform="matrix(1.216987, 0, 0, 0.836001, 733.287465, 48.285602)" style="">
    <polygon points="&#10;&#9;&#9;0,-57.73502692&#10;&#9;&#9;50,-28.86751346 &#10;&#9;&#9;50,28.86751346&#10;&#9;&#9;0, 57.73502692&#10;&#9;&#9;-50,28.86751346&#10;&#9;&#9;-50,-28.86751346 " fill="none" stroke="grey"/>
  </g>
  <g transform="matrix(1.216987, 0, 0, 0.836001, 854.986072, 48.285602)" style="">
    <polygon points="&#10;&#9;&#9;0,-57.73502692&#10;&#9;&#9;50,-28.86751346 &#10;&#9;&#9;50,28.86751346&#10;&#9;&#9;0, 57.73502692&#10;&#9;&#9;-50,28.86751346&#10;&#9;&#9;-50,-28.86751346 " fill="none" stroke="grey"/>
  </g>
  <g transform="matrix(0.130868, 0, 0, -0.107836, 91.980567, 736.61559)" fill="#000000" stroke="none" style="">
    <path d="M 959 4310 C 912 4285 873 4239 860 4192 C 854 4171 850 4038 850 3878 L 850 3600 L 736 3600 C 630 3600 619 3598 594 3576 C 556 3544 555 3490 593 3452 L 620 3425 L 3000 3425 L 5380 3425 L 5407 3453 C 5433 3479 5435 3486 5438 3585 C 5444 3754 5416 3836 5339 3879 C 5319 3891 5287 3900 5269 3900 C 5250 3900 5157 3878 5063 3851 C 4847 3789 4596 3726 4277 3655 L 4029 3600 L 2524 3600 L 1020 3600 L 1020 3873 C 1020 4072 1000.437 4149 1009.437 4158 C 1025.437 4174 991 4328 959 4310 Z" style=""/>
    <path d="M653 3098 c5 -229 22 -326 81 -476 140 -355 438 -637 796 -756 206 -68 165 -66 1470 -66 1282 0 1260 -1 1445 57 394 124 709 433 839 823 51 154 66 255 66 456 l0 174 -2351 0 -2351 0 5 -212z" style=""/>
    <path d="M991 2007 c-31 -93 -54 -123 -113 -153 -67 -33 -85 -50 -110 -98 -16 -31 -18 -44 -9 -62 l11 -24 214 0 c244 0 242 -1 230 75 -6 45 -6 47 40 89 l46 43 -78 46 c-43 25 -108 68 -145 96 l-66 50 -20 -62z" style=""/>
    <path d="M4915 2013 c-33 -25 -95 -66 -137 -91 -43 -24 -78 -48 -78 -51 0 -4 13 -15 30 -24 41 -25 53 -52 47 -102 -11 -76 -11 -76 232 -73 183 3 215 5 224 19 23 37 -32 123 -103 159 -55 28 -106 91 -126 154 -10 31 -20 56 -23 56 -3 -1 -33 -21 -66 -47z" style=""/>
  </g>
  <text style="white-space: pre; fill: rgb(51, 51, 51); font-family: Arial, sans-serif; font-size: 58.9px;" x="721.297" y="839.218"> </text>
  <text style="white-space: pre; fill: rgb(51, 51, 51); font-family: Arial, sans-serif; font-size: 55.1px;" x="887.152" y="596.151"> </text>
  <path d="M 614.765 136.166 C 623.294 145.244 621.412 155.703 615.139 161.342 C 611.001 165.069 588.322 178.403 583.823 181.06 C 583.436 181.277 583.023 181.457 582.595 181.577 C 582.222 181.686 573.478 184.114 564.335 184.114 C 561.639 184.114 559.13 183.885 556.887 183.465 C 556.673 183.441 556.473 183.417 556.314 183.417 C 556.233 183.417 556.166 183.429 556.14 183.429 C 555.992 183.585 555.566 184.294 555.566 185.81 L 555.566 217.334 C 555.566 218.151 555.473 223.345 552.923 227.697 L 579.766 242.811 C 579.833 242.834 579.899 242.883 579.953 242.919 C 580.233 243.075 582.689 244.638 585.091 246.982 C 588.949 250.745 590.591 254.497 589.977 258.164 C 589.163 262.961 584.678 266.532 576.629 268.816 C 555.526 274.744 415.184 307.506 409.217 308.9 C 408.911 308.985 408.577 309.009 408.256 309.045 C 408.176 309.045 407.495 309.081 406.428 309.081 C 399.9 309.081 391.505 307.951 388.568 302.625 C 386.632 299.09 387.593 295.014 391.411 290.505 C 401.703 278.326 466.187 205.431 469.618 201.548 C 471.7 198.77 476.906 194.333 484.087 194.333 C 486.609 194.333 489.159 194.887 491.669 195.945 C 501.359 199.996 516.362 210.589 518.872 212.392 C 519.74 212.801 521.796 213.594 523.437 213.594 L 523.45 213.594 C 524.118 213.594 524.624 213.594 525.052 212.488 L 525.052 175.542 C 525.038 174.616 525.186 169.758 529.337 165.899 C 532.447 163.013 536.812 161.523 542.311 161.463 C 542.671 161.415 543.66 161.223 544.58 160.765 C 545.688 160.188 546.195 159.491 546.303 158.373 C 546.702 154.429 550.734 150.065 569.141 141.565 C 578.471 137.248 587.574 133.726 588.963 133.197 C 590.137 132.668 595.116 130.587 600.963 130.587 C 606.569 130.587 611.334 132.511 614.765 136.166 Z M 608.104 155.007 C 610.226 153.095 612.762 147.913 607.169 141.949 C 605.621 140.302 603.659 139.557 600.963 139.557 C 597.052 139.557 593.394 141.228 593.355 141.228 C 593.234 141.3 593.128 141.336 593.007 141.384 C 592.914 141.408 584.224 144.739 575.161 148.863 C 560.038 155.728 556.781 158.866 556.153 159.659 C 555.806 162.22 554.711 164.216 553.256 165.755 C 553.67 165.912 554.084 166.056 554.511 166.224 C 559.317 168.136 562.507 171.165 563.921 175.145 C 564.055 175.145 564.189 175.145 564.335 175.145 C 570.663 175.145 577.043 173.678 579.019 173.185 C 589.163 167.222 605.528 157.314 608.104 155.007 Z M 580.14 256.805 C 580.38 255.398 577.203 252.152 574.387 250.349 L 542.658 232.471 C 542.257 232.254 541.897 231.99 541.591 231.665 L 472.647 260.039 C 472.381 260.147 472.1 260.208 471.819 260.208 C 471.165 260.208 470.538 259.919 470.164 259.39 C 469.618 258.657 469.764 257.659 470.485 257.081 L 515.161 220.736 C 514.307 220.375 513.733 220.086 513.573 220.003 C 513.372 219.883 513.172 219.774 512.999 219.63 C 512.839 219.521 496.754 207.968 487.464 204.048 C 486.276 203.567 485.141 203.303 484.087 203.303 C 480.483 203.303 478.013 206.357 477.813 206.633 C 477.72 206.777 477.653 206.838 477.533 206.982 C 476.865 207.739 409.792 283.556 399.326 295.928 C 398.032 297.443 397.698 298.332 397.604 298.681 C 398.405 299.222 401.289 300.124 406.427 300.124 C 406.748 300.124 407.028 300.099 407.242 300.099 C 416.853 297.864 553.417 265.954 573.653 260.255 C 578.551 258.885 580.033 257.406 580.14 256.805 Z M 558.902 174.7 C 559.089 174.736 559.277 174.772 559.464 174.797 C 558.209 172.536 556.06 170.781 553.003 169.554 C 551.828 169.062 550.667 168.736 549.599 168.484 C 547.276 169.71 544.821 170.264 543.046 170.408 C 542.911 170.42 542.779 170.432 542.632 170.432 C 539.775 170.432 537.706 170.997 536.478 172.139 C 535.063 173.461 535.01 175.349 535.01 175.349 C 535.01 175.397 535.01 175.445 535.01 175.506 L 535.01 213.149 C 535.01 213.522 534.956 213.919 534.836 214.304 C 533.968 217.225 532.3 219.462 530.004 220.868 L 541.443 225.846 C 541.871 225.353 542.432 224.956 543.059 224.68 C 544.607 223.982 545.621 219.799 545.621 217.334 L 545.621 185.81 C 545.621 182.863 546.435 180.255 547.971 178.307 C 549.92 175.818 552.882 174.448 556.314 174.448 C 557.155 174.448 558.022 174.544 558.902 174.7 Z M 482.726 251.948 L 539.041 228.792 L 524.652 222.515 C 524.251 222.54 523.851 222.551 523.437 222.551 C 522.036 222.551 520.673 222.383 519.432 222.095 L 482.726 251.948 Z M 607.169 141.949 C 612.762 147.913 610.226 153.095 608.104 155.007 C 605.528 157.314 589.163 167.222 579.019 173.185 C 577.043 173.678 570.663 175.145 564.335 175.145 C 564.189 175.145 564.055 175.145 563.921 175.145 C 562.507 171.165 559.316 168.136 554.511 166.224 C 554.084 166.056 553.67 165.912 553.256 165.755 C 554.711 164.216 555.806 162.22 556.153 159.659 C 556.781 158.866 560.038 155.728 575.161 148.863 C 584.224 144.739 592.914 141.409 593.007 141.384 C 593.127 141.336 593.234 141.3 593.355 141.228 C 593.394 141.228 597.052 139.557 600.963 139.557 C 603.659 139.557 605.621 140.302 607.169 141.949 Z M 574.387 250.349 C 577.203 252.152 580.38 255.398 580.14 256.805 C 580.033 257.406 578.739 260.316 573.653 260.255 C 549.827 259.971 412.857 291.204 407.242 300.099 C 407.028 300.099 406.748 300.124 406.428 300.124 C 401.289 300.124 398.405 299.222 397.604 298.681 C 397.698 298.332 398.032 297.443 399.326 295.928 C 409.792 283.556 476.865 207.739 477.533 206.982 C 477.653 206.838 477.72 206.777 477.813 206.633 C 478.013 206.357 480.483 203.303 484.087 203.303 C 485.141 203.303 486.276 203.567 487.464 204.048 C 496.754 207.968 512.839 219.521 512.999 219.63 C 513.172 219.774 513.372 219.883 513.573 220.003 C 513.733 220.087 514.307 220.375 515.161 220.736 L 470.485 257.081 C 469.764 257.659 469.618 258.657 470.164 259.39 C 470.538 259.919 471.166 260.208 471.819 260.208 C 472.1 260.208 472.381 260.147 472.647 260.039 L 541.591 231.665 C 541.897 231.99 542.257 232.254 542.658 232.471 L 574.387 250.349 Z M 559.464 174.797 C 559.277 174.772 559.089 174.736 558.902 174.7 C 558.022 174.544 557.155 174.448 556.314 174.448 C 552.882 174.448 549.92 175.818 547.971 178.307 C 546.435 180.255 545.621 182.863 545.621 185.809 L 545.621 217.334 C 545.621 219.799 544.607 223.982 543.059 224.68 C 542.432 224.956 541.871 225.353 541.443 225.846 L 530.004 220.868 C 532.3 219.462 533.968 217.225 534.836 214.304 C 534.956 213.919 535.01 213.522 535.01 213.149 L 535.01 175.506 C 535.01 175.445 535.01 175.397 535.01 175.349 C 535.01 175.349 535.063 173.461 536.478 172.139 C 537.706 170.997 539.775 170.432 542.632 170.432 C 542.779 170.432 542.911 170.42 543.046 170.408 C 544.821 170.264 547.276 169.71 549.599 168.484 C 550.667 168.736 551.828 169.062 553.003 169.554 C 556.06 170.781 558.209 172.536 559.464 174.797 Z M 539.041 228.792 L 482.726 251.948 L 519.432 222.095 C 520.673 222.383 522.036 222.552 523.437 222.552 C 523.851 222.552 524.251 222.54 524.652 222.515 L 539.041 228.792 Z" style=""/>
  <g transform="matrix(0.1, 0, 0, -0.1, 352.20663, 520.66082)" fill="#000000" stroke="none"/>
  <g transform="matrix(0.071121, 0, 0, -0.1, 179.081449, 801.750233)" fill="#000000" stroke="none" style="">
    <path d="M 1043.706 7292.303 C 764.351 7261.757 526.077 7156.787 401.805 7009.054 L 365.858 6966.844 L 357.383 5393.737 C 256.406 3736.419 636.316 4589.065 640.474 4642.86 C 647.301 4731.19 652.219 6929.002 678.922 6959.548 C 743.626 7031.193 947.164 7107.357 1110.464 7125.686 C 1200.844 7135.683 1246.034 7135.683 1336.414 7125.686 C 1439.119 7114.023 1509.984 7092.918 1588.04 7051.263 C 1668.149 7007.943 1742.096 6936.298 1742.096 6900.197 L 1742.096 6878.537 L 1641.446 6851.323 C 1473.011 6805.78 1374.415 6752.463 1295.332 6664.711 C 1248.088 6612.505 1208.034 6535.306 1205.98 6492.541 C 1204.952 6467.549 1220.358 6449.775 1262.467 6424.783 L 1283.008 6412.009 L 1919.775 6412.009 L 2555.515 6412.009 L 2584.272 6427.56 C 2622.273 6448.109 2631.516 6481.434 2615.084 6535.306 C 2591.461 6610.839 2521.622 6691.925 2434.324 6744.689 C 2387.08 6773.013 2245.348 6827.996 2188.86 6839.66 C 2088.21 6860.209 2079.994 6865.762 2060.48 6927.966 C 2054.318 6947.405 2038.912 6977.397 2027.614 6994.614 C 1950.586 7106.247 1732.853 7225.102 1525.39 7268.977 C 1388.794 7298.413 1187.493 7307.854 1043.706 7292.303 Z" style=""/>
  </g>
</svg>